<svg xmlns="http://www.w3.org/2000/svg" viewBox="0 0 448 512"><!--!Font Awesome Free 6.5.2 by @fontawesome - https://fontawesome.com License - https://fontawesome.com/license/free Copyright 2024 Fonticons, Inc.--><path d="M0 96C0 60.7 28.7 32 64 32H384c35.3 0 64 28.7 64 64V416c0 35.3-28.7 64-64 64H64c-35.3 0-64-28.7-64-64V96zM144 160c-26.5 0-48 21.5-48 48s21.5 48 48 48s48-21.5 48-48s-21.5-48-48-48zm-64 192c0 17.7 14.3 32 32 32h64c17.7 0 32-14.3 32-32c0-35.3-28.7-64-64-64s-64 28.7-64 64zm256-96H336c-8.8 0-16 7.2-16 16s7.2 16 16 16h96c8.8 0 16-7.2 16-16s-7.2-16-16-16H336zm0 64H336c-8.8 0-16 7.2-16 16s7.2 16 16 16h96c8.8 0 16-7.2 16-16s-7.2-16-16-16H336zm-16-128c0 8.8 7.2 16 16 16h96c8.8 0 16-7.2 16-16s-7.2-16-16-16H336c-8.8 0-16 7.2-16 16z"/></svg>
